<svg width="166" height="17" fill="none" xmlns="http://www.w3.org/2000/svg">
    <path d="M114.347 3.26H99.626l-3.788 10.408h2.866l2.865-7.905h3.59c.395 0 .592.33.461.725l-2.602 7.18h2.865l2.602-7.18c.132-.395.593-.725.988-.725h2.865c.396 0 .593.33.461.725l-2.601 7.18h2.865L116.06 5.4c.428-1.152-.329-2.14-1.713-2.14zM134.371 10.473c-.131.395-.593.725-.988.725h-3.59c-.395 0-.592-.33-.461-.725l2.602-7.18h-2.865l-2.997 8.234c-.428 1.186.329 2.14 1.745 2.14h6.455c.989 0 2.042-.658 2.306-1.448l3.26-8.991h-2.865l-2.602 7.245z"
          fill="#fff"/>
    <path fill-rule="evenodd" clip-rule="evenodd"
          d="M86.814 9.749l-.263.724c-.132.395.066.692.494.692h7.904l-.922 2.503h-8.991c-1.416 0-2.174-.955-1.746-2.141l2.503-6.784c.264-.79 1.318-1.45 2.306-1.45h7.18c1.416 0 2.173.956 1.745 2.141l-.659 1.812-.922 2.503h-8.629zm2.174-3.953c-.395 0-.856.33-.988.725l-.263.725H93.5l.263-.725c.132-.395-.065-.725-.46-.725h-4.315z"
          fill="#fff"/>
    <path d="M162.135 3.26l-1.449 3.953h-5.039l1.449-3.953h-2.865l-3.788 10.44h2.865l1.417-3.951h5.038l-1.416 3.952h2.866L165 3.26h-2.865zM118.135 4.71l-3.261 8.99h2.866l2.601-7.179c.132-.395.593-.725.988-.725h5.039l.922-2.503h-6.817c-1.021-.033-2.075.626-2.338 1.417zM73.213 4.71l-1.054 2.865c-.428 1.186.329 2.14 1.745 2.14h4.677c.395 0 .593.33.46.725-.13.395-.592.725-.987.725h-7.18l-.922 2.503h8.991c.988 0 2.042-.659 2.306-1.45l1.053-2.865c.428-1.185-.329-2.14-1.745-2.14H75.88c-.395 0-.593-.33-.46-.725.13-.395.592-.725.987-.725h7.18l.922-2.502h-8.991c-.988 0-2.009.658-2.305 1.449zM141.123 4.71l-1.054 2.865c-.428 1.186.329 2.14 1.745 2.14h4.677c.395 0 .593.33.461.725-.132.395-.593.725-.988.725h-7.18l-.922 2.503h8.991c.988 0 2.042-.659 2.306-1.45l1.054-2.865c.428-1.185-.33-2.14-1.746-2.14h-4.677c-.395 0-.592-.33-.461-.725.132-.395.593-.725.988-.725h7.18l.922-2.502h-8.991c-.988 0-2.009.658-2.305 1.449z"
          fill="#fff"/>
    <path fill-rule="evenodd" clip-rule="evenodd"
          d="M52.991.56c3.557-.659 6.356.066 8.398 2.206 1.581 1.614 2.404 3.557 2.437 5.83.033 2.404-.955 4.479-3.063 6.224-2.37 1.944-5.104 2.339-8.233 1.186-2.931-1.087-5.599-1.91-9.452-1.91-3.854 0-7.839.593-7.839.593.779-.664 3.022-1.529 4.585-2.132l.62-.24.33-.115c.554-.192 1.107-.384 1.546-.576.659-.297 1.087-.56.824-.89-.428-.592-2.57-.032-3.162.132-1.383.396-2.668.824-5.73 2.108-2.602 1.12-5.896 1.58-8.992 1.746-3.062.098-5.73-.89-7.146-2.306l.881.217c2.322.576 3.796.941 6.529.442.593-.099 2.766-.988 2.437-1.515-.147-.232-.486-.167-1.1-.051-1.308.248-3.866.732-8.484-.904-.31-.113-.622-.24-.95-.374-1.983-.806-4.555-1.852-10.544-1.372-.224.018-.5.048-.814.082-1.487.164-3.843.423-5.773-.148 4.71-1.844 8.464-2.766 10.44-3.128 3.722-.725 6.554-.297 8.465.428-.824-1.383-2.965-2.503-2.965-2.503 1.12.164 2.57.494 3.887 1.185.356.188.816.514 1.377.913 1.51 1.073 3.752 2.666 6.659 3.435 2.075.56 4.413.955 7.673.626.416-.044.743-.076 1.015-.102.76-.075 1.088-.106 1.719-.228 1.152-.23 2.009-1.054 1.778-1.712-.23-.66-1.087-.988-2.042-.758-.192.045-.455.144-.785.27-1.369.518-3.894 1.474-7.316.784-2.176-.439-3.782-1.611-5.357-2.762-1.5-1.096-2.974-2.172-4.886-2.573 3.024-.47 5.195.583 7.238 1.574.96.466 1.893.918 2.873 1.192 2.14.593 5.599.461 7.476.066.757-.165 1.153-.428.362-.79-.79-.363-5.434-1.021-9.65-1.186 2.899-1.416 7.345-.494 7.345-.494-1.021-1.021-3.327-1.515-3.327-1.515 2.8-.296 5.6-.264 7.608.922A15.124 15.124 0 0142.38 4.18a18.37 18.37 0 00.87.693c.342.27 1.371 1.08 2.035.035.626-.955-.757-1.548-1.778-1.91-1.087-.395-2.042-1.087-2.668-2.075.266.06.541.134.828.21.96.253 2.047.54 3.29.515C48.741 1.58 52.99.56 52.99.56zm-3.689 7.97a6.585 6.585 0 006.587 6.587 6.585 6.585 0 006.587-6.587c0-3.623-2.964-6.587-6.587-6.587-3.623 0-6.587 2.964-6.587 6.587z"
          fill="#fff"/>
    <path fill-rule="evenodd" clip-rule="evenodd"
          d="M50.686 8.53a5.215 5.215 0 015.203-5.204 5.173 5.173 0 015.204 5.204 5.215 5.215 0 01-5.204 5.204 5.215 5.215 0 01-5.203-5.204zm8.563.757c0 1.021-.33 1.943-.923 2.701.988-.823 1.647-2.042 1.647-3.425 0-2.14-1.58-3.92-3.623-4.282a6.58 6.58 0 00-.626.725 4.378 4.378 0 013.525 4.281z"
          fill="#fff"/>
</svg>
